<svg xmlns="http://www.w3.org/2000/svg" width="17.86" height="19.484" viewBox="0 0 17.86 19.484">
  <defs>
    <style>
      .cls-1 {
        fill: #faf8f8;
      }
    </style>
  </defs>
  <g id="share" transform="translate(0 0)">
    <path id="Path_72" data-name="Path 72" class="cls-1" d="M319.945,18.638A2.638,2.638,0,1,1,317.306,16,2.638,2.638,0,0,1,319.945,18.638Zm0,0" transform="translate(-302.694 -15.391)"/>
    <path id="Path_73" data-name="Path 73" class="cls-1" d="M301.915,6.495a3.247,3.247,0,1,1,3.247-3.247A3.251,3.251,0,0,1,301.915,6.495Zm0-5.277a2.03,2.03,0,1,0,2.029,2.029,2.032,2.032,0,0,0-2.029-2.029Zm0,0" transform="translate(-287.302 0)"/>
    <path id="Path_74" data-name="Path 74" class="cls-1" d="M319.945,359.971a2.638,2.638,0,1,1-2.638-2.638A2.638,2.638,0,0,1,319.945,359.971Zm0,0" transform="translate(-302.694 -343.734)"/>
    <path id="Path_75" data-name="Path 75" class="cls-1" d="M301.915,347.827a3.247,3.247,0,1,1,3.247-3.247A3.251,3.251,0,0,1,301.915,347.827Zm0-5.277a2.03,2.03,0,1,0,2.029,2.03A2.032,2.032,0,0,0,301.915,342.55Zm0,0" transform="translate(-287.302 -328.343)"/>
    <path id="Path_76" data-name="Path 76" class="cls-1" d="M21.277,189.306a2.638,2.638,0,1,1-2.639-2.638A2.638,2.638,0,0,1,21.277,189.306Zm0,0" transform="translate(-15.391 -179.564)"/>
    <path id="Path_77" data-name="Path 77" class="cls-1" d="M3.247,177.162a3.247,3.247,0,1,1,3.247-3.247,3.25,3.25,0,0,1-3.247,3.247Zm0-5.277a2.029,2.029,0,1,0,2.03,2.029,2.032,2.032,0,0,0-2.03-2.029Zm0,0" transform="translate(0 -164.173)"/>
    <path id="Path_78" data-name="Path 78" class="cls-1" d="M115.161,96.134a.812.812,0,0,1-.4-1.517l7.533-4.294a.812.812,0,1,1,.8,1.411l-7.533,4.294a.807.807,0,0,1-.4.106Zm0,0" transform="translate(-109.997 -86.781)"/>
    <path id="Path_79" data-name="Path 79" class="cls-1" d="M122.715,272.138a.807.807,0,0,1-.4-.106l-7.533-4.294a.812.812,0,0,1,.8-1.411l7.533,4.294a.812.812,0,0,1-.4,1.517Zm0,0" transform="translate(-110.019 -256.088)"/>
  </g>
</svg>
