<svg xmlns="http://www.w3.org/2000/svg" width="21.917" height="21.917" viewBox="0 0 21.917 21.917">
  <defs>
    <style>
      .cls-1 {
        fill: #d2cdc6;
      }
    </style>
  </defs>
  <path id="Icon_ionic-md-settings" data-name="Icon ionic-md-settings" class="cls-1" d="M22.656,15.429a6.853,6.853,0,0,0,.056-1.1c0-.384-.056-.712-.056-1.1l2.353-1.808a.5.5,0,0,0,.112-.712L22.88,6.937a.546.546,0,0,0-.673-.219l-2.8,1.1a8.157,8.157,0,0,0-1.905-1.1l-.392-2.9a.6.6,0,0,0-.56-.438H12.064a.6.6,0,0,0-.56.438l-.448,2.9a9.49,9.49,0,0,0-1.906,1.1l-2.8-1.1a.525.525,0,0,0-.673.219L3.433,10.717a.662.662,0,0,0,.112.712l2.41,1.808c0,.384-.056.712-.056,1.1s.056.712.056,1.1L3.6,17.237a.5.5,0,0,0-.112.712l2.242,3.781a.546.546,0,0,0,.673.219l2.8-1.1a8.156,8.156,0,0,0,1.905,1.1l.448,2.9a.543.543,0,0,0,.56.438H16.6a.6.6,0,0,0,.56-.438l.449-2.9a9.485,9.485,0,0,0,1.905-1.1l2.8,1.1a.525.525,0,0,0,.673-.219l2.242-3.781a.661.661,0,0,0-.112-.712Zm-8.351,2.74a3.836,3.836,0,1,1,3.923-3.835A3.856,3.856,0,0,1,14.305,18.169Z" transform="translate(-3.375 -3.375)"/>
</svg>
