<svg xmlns="http://www.w3.org/2000/svg" width="25.075" height="24.44" viewBox="0 0 25.075 24.44">
  <defs>
    <style>
      .cls-1 {
        fill: #f6a580;
      }
    </style>
  </defs>
  <path id="Icon_awesome-arrow-down" data-name="Icon awesome-arrow-down" class="cls-1" d="M23.2,12.911l1.242,1.242a1.338,1.338,0,0,1,0,1.9L13.568,26.93a1.338,1.338,0,0,1-1.9,0L.792,16.051a1.338,1.338,0,0,1,0-1.9l1.242-1.242a1.345,1.345,0,0,1,1.92.022l6.425,6.744V3.593A1.34,1.34,0,0,1,11.722,2.25h1.791a1.34,1.34,0,0,1,1.343,1.343V19.677l6.425-6.744A1.335,1.335,0,0,1,23.2,12.911Z" transform="translate(27.325 -0.397) rotate(90)"/>
</svg>
